{
	"asset":{
		"generator":"Khronos glTF Blender I/O v4.0.44",
		"version":"2.0"
	},
	"extensionsUsed":[
		"KHR_lights_punctual"
	],
	"extensionsRequired":[
		"KHR_lights_punctual"
	],
	"extensions":{
		"KHR_lights_punctual":{
			"lights":[
				{
					"color":[
						1,
						1,
						1
					],
					"intensity":54351.41306588226,
					"type":"point",
					"name":"Light"
				},
				{
					"color":[
						1,
						1,
						1
					],
					"intensity":7478.753940263351,
					"spot":{
						"innerConeAngle":0.3590142329193968,
						"outerConeAngle":0.42236968874931335
					},
					"type":"spot",
					"name":"Spot.001"
				},
				{
					"color":[
						1,
						1,
						1
					],
					"intensity":7478.753940263351,
					"spot":{
						"innerConeAngle":0.3590142329193968,
						"outerConeAngle":0.42236968874931335
					},
					"type":"spot",
					"name":"Spot.002"
				}
			]
		}
	},
	"scene":0,
	"scenes":[
		{
			"name":"Scene",
			"nodes":[
				0,
				1,
				2,
				3,
				4
			]
		}
	],
	"nodes":[
		{
			"mesh":0,
			"name":"MATCH SURFACE 2.0",
			"scale":[
				0.009999999776482582,
				0.009999999776482582,
				0.009999999776482582
			]
		},
		{
			"extensions":{
				"KHR_lights_punctual":{
					"light":0
				}
			},
			"name":"Light",
			"rotation":[
				-0.06865714490413666,
				0.8900915384292603,
				0.4133136570453644,
				0.17942985892295837
			],
			"translation":[
				4.076245307922363,
				5.903861999511719,
				-1.0054539442062378
			]
		},
		{
			"camera":0,
			"name":"Camera",
			"rotation":[
				-0.16438984870910645,
				0.2066064178943634,
				0.06851054728031158,
				0.9620790481567383
			],
			"translation":[
				1.0632652044296265,
				1.0091627836227417,
				7.20092248916626
			]
		},
		{
			"extensions":{
				"KHR_lights_punctual":{
					"light":1
				}
			},
			"name":"Spot.001",
			"rotation":[
				-0.7071068286895752,
				0,
				0,
				0.7071068286895752
			],
			"translation":[
				-0.8847978115081787,
				-0.9706873297691345,
				0
			]
		},
		{
			"extensions":{
				"KHR_lights_punctual":{
					"light":2
				}
			},
			"name":"Spot.002",
			"rotation":[
				-0.7071068286895752,
				0,
				0,
				0.7071068286895752
			],
			"translation":[
				-0.10277217626571655,
				-0.9706873297691345,
				0
			]
		}
	],
	"cameras":[
		{
			"name":"Camera",
			"perspective":{
				"aspectRatio":1.7777777777777777,
				"yfov":0.29044296975152256,
				"zfar":100,
				"znear":0.10000000149011612
			},
			"type":"perspective"
		}
	],
	"meshes":[
		{
			"name":"MATCH SURFACE 2.0",
			"primitives":[
				{
					"attributes":{
						"POSITION":0,
						"NORMAL":1
					},
					"indices":2
				}
			]
		}
	],
	"accessors":[
		{
			"bufferView":0,
			"componentType":5126,
			"count":219948,
			"max":[
				135.2982177734375,
				34,
				13.333307266235352
			],
			"min":[
				-118.62567138671875,
				-119.40312194824219,
				-13.282395362854004
			],
			"type":"VEC3"
		},
		{
			"bufferView":1,
			"componentType":5126,
			"count":219948,
			"type":"VEC3"
		},
		{
			"bufferView":2,
			"componentType":5125,
			"count":229746,
			"type":"SCALAR"
		}
	],
	"bufferViews":[
		{
			"buffer":0,
			"byteLength":2639376,
			"byteOffset":0,
			"target":34962
		},
		{
			"buffer":0,
			"byteLength":2639376,
			"byteOffset":2639376,
			"target":34962
		},
		{
			"buffer":0,
			"byteLength":918984,
			"byteOffset":5278752,
			"target":34963
		}
	],
	"buffers":[
		{
			"byteLength":6197736,
			"uri":"Match%20SURFACE%202.bin"
		}
	]
}
