{
	"asset":{
		"generator":"Khronos glTF Blender I/O v4.0.44",
		"version":"2.0"
	},
	"scene":0,
	"scenes":[
		{
			"name":"Scene",
			"nodes":[
				0
			]
		}
	],
	"nodes":[
		{
			"mesh":0,
			"name":"MATCH SURFACE 2.0",
			"scale":[
				0.06000000983476639,
				0.06000000983476639,
				0.06000000983476639
			]
		}
	],
	"materials":[
		{
			"doubleSided":true,
			"name":"BaseMaterial",
			"pbrMetallicRoughness":{
				"baseColorFactor":[
					0.800000011920929,
					0.800000011920929,
					0.800000011920929,
					1
				],
				"metallicFactor":0,
				"roughnessFactor":0.5
			}
		}
	],
	"meshes":[
		{
			"name":"MATCH SURFACE 2.0",
			"primitives":[
				{
					"attributes":{
						"POSITION":0,
						"NORMAL":1
					},
					"indices":2,
					"material":0
				}
			]
		}
	],
	"accessors":[
		{
			"bufferView":0,
			"componentType":5126,
			"count":219948,
			"max":[
				135.2982177734375,
				34,
				13.333307266235352
			],
			"min":[
				-118.62567138671875,
				-119.40312194824219,
				-13.282395362854004
			],
			"type":"VEC3"
		},
		{
			"bufferView":1,
			"componentType":5126,
			"count":219948,
			"type":"VEC3"
		},
		{
			"bufferView":2,
			"componentType":5125,
			"count":229746,
			"type":"SCALAR"
		}
	],
	"bufferViews":[
		{
			"buffer":0,
			"byteLength":2639376,
			"byteOffset":0,
			"target":34962
		},
		{
			"buffer":0,
			"byteLength":2639376,
			"byteOffset":2639376,
			"target":34962
		},
		{
			"buffer":0,
			"byteLength":918984,
			"byteOffset":5278752,
			"target":34963
		}
	],
	"buffers":[
		{
			"byteLength":6197736,
			"uri":"Match%20SURFACE%202.bin"
		}
	]
}
