{
  "accessors": [
    {
      "bufferView": 2,
      "componentType": 5126,
      "count": 4388,
      "max": [
        39.95798873901367,
        77.75019836425781,
        40.79796600341797
      ],
      "min": [
        -45.966163635253906,
        -56.745887756347656,
        -47.846195220947266
      ],
      "type": "VEC3"
    },
    {
      "bufferView": 2,
      "byteOffset": 52656,
      "componentType": 5126,
      "count": 4388,
      "max": [
        1.0,
        1.0,
        0.9999979734420776
      ],
      "min": [
        -1.0,
        -0.9999998211860657,
        -0.9999918341636658
      ],
      "type": "VEC3"
    },
    {
      "bufferView": 3,
      "componentType": 5126,
      "count": 4388,
      "max": [
        1.0,
        1.0,
        0.9999842047691345,
        1.0
      ],
      "min": [
        -1.0,
        -0.9999994039535522,
        -0.9999937415122986,
        -1.0
      ],
      "type": "VEC4"
    },
    {
      "bufferView": 1,
      "componentType": 5126,
      "count": 4388,
      "max": [
        0.99609375,
        0.9667066335678101
      ],
      "min": [
        0.00390625,
        0.00390625
      ],
      "type": "VEC2"
    },
    {
      "bufferView": 0,
      "componentType": 5125,
      "count": 16464,
      "type": "SCALAR"
    }
  ],
  "asset": {
    "extras": {
      "author": "artvolodskikh (https://sketchfab.com/artvolodskikh)",
      "license": "CC-BY-4.0 (http://creativecommons.org/licenses/by/4.0/)",
      "source": "https://sketchfab.com/3d-models/office-chair-a7fefb5dde954c84896949246dde5be6",
      "title": "Office Chair"
    },
    "generator": "Sketchfab-14.85.0",
    "version": "2.0"
  },
  "bufferViews": [
    {
      "buffer": 0,
      "byteLength": 65856,
      "name": "floatBufferViews",
      "target": 34963
    },
    {
      "buffer": 0,
      "byteLength": 35104,
      "byteOffset": 65856,
      "byteStride": 8,
      "name": "floatBufferViews",
      "target": 34962
    },
    {
      "buffer": 0,
      "byteLength": 105312,
      "byteOffset": 100960,
      "byteStride": 12,
      "name": "floatBufferViews",
      "target": 34962
    },
    {
      "buffer": 0,
      "byteLength": 70208,
      "byteOffset": 206272,
      "byteStride": 16,
      "name": "floatBufferViews",
      "target": 34962
    }
  ],
  "buffers": [
    {
      "byteLength": 276480,
      "uri": "scene.bin"
    }
  ],
  "extensionsUsed": [
    "KHR_materials_specular"
  ],
  "images": [
    {
      "uri": "phong1_baseColor.png"
    },
    {
      "uri": "phong1_metallicRoughness.png"
    },
    {
      "uri": "phong1_normal.png"
    }
  ],
  "materials": [
    {
      "doubleSided": true,
      "extensions": {
        "KHR_materials_specular": {
          "specularColorFactor": [
            1.0,
            1.0,
            1.0
          ],
          "specularFactor": 1.0
        }
      },
      "name": "phong1",
      "normalTexture": {
        "index": 2
      },
      "pbrMetallicRoughness": {
        "baseColorTexture": {
          "index": 0
        },
        "metallicRoughnessTexture": {
          "index": 1
        }
      }
    }
  ],
  "meshes": [
    {
      "name": "officeChair_phong1_0",
      "primitives": [
        {
          "attributes": {
            "NORMAL": 1,
            "POSITION": 0,
            "TANGENT": 2,
            "TEXCOORD_0": 3
          },
          "indices": 4,
          "material": 0,
          "mode": 4
        }
      ]
    }
  ],
  "nodes": [
    {
      "children": [
        1
      ],
      "matrix": [
        1.08695650100708,
        0.0,
        0.0,
        0.0,
        0.0,
        4.161487607808576e-16,
        -1.08695650100708,
        0.0,
        0.0,
        1.08695650100708,
        4.161487607808576e-16,
        0.0,
        0.0,
        0.0,
        0.0,
        1.0
      ],
      "name": "Sketchfab_model"
    },
    {
      "children": [
        2
      ],
      "matrix": [
        0.009999999776482582,
        0.0,
        0.0,
        0.0,
        0.0,
        0.0,
        0.009999999776482582,
        0.0,
        0.0,
        -0.009999999776482582,
        0.0,
        0.0,
        0.0,
        0.0,
        0.0,
        1.0
      ],
      "name": "105a77fc7152494dbc314d811ce451b2.fbx"
    },
    {
      "children": [
        3
      ],
      "name": "RootNode"
    },
    {
      "children": [
        4
      ],
      "name": "officeChair"
    },
    {
      "mesh": 0,
      "name": "officeChair_phong1_0"
    }
  ],
  "samplers": [
    {
      "magFilter": 9729,
      "minFilter": 9987,
      "wrapS": 10497,
      "wrapT": 10497
    }
  ],
  "scene": 0,
  "scenes": [
    {
      "name": "Sketchfab_Scene",
      "nodes": [
        0
      ]
    }
  ],
  "textures": [
    {
      "sampler": 0,
      "source": 0
    },
    {
      "sampler": 0,
      "source": 1
    },
    {
      "sampler": 0,
      "source": 2
    }
  ]
}
