{
	"asset":{
		"generator":"Khronos glTF Blender I/O v4.0.44",
		"version":"2.0"
	},
	"scene":0,
	"scenes":[
		{
			"name":"Scene",
			"nodes":[
				0
			]
		}
	],
	"nodes":[
		{
			"mesh":0,
			"name":"TAPIS SOFT 2.0"
		}
	],
	"meshes":[
		{
			"name":"TAPIS SOFT 2.0",
			"primitives":[
				{
					"attributes":{
						"POSITION":0,
						"NORMAL":1
					},
					"indices":2
				}
			]
		}
	],
	"accessors":[
		{
			"bufferView":0,
			"componentType":5126,
			"count":104955,
			"max":[
				324.91943359375,
				325.02850341796875,
				102.20494079589844
			],
			"min":[
				-37.504581451416016,
				-325.0284729003906,
				-45.59233093261719
			],
			"type":"VEC3"
		},
		{
			"bufferView":1,
			"componentType":5126,
			"count":104955,
			"type":"VEC3"
		},
		{
			"bufferView":2,
			"componentType":5125,
			"count":108048,
			"type":"SCALAR"
		}
	],
	"bufferViews":[
		{
			"buffer":0,
			"byteLength":1259460,
			"byteOffset":0,
			"target":34962
		},
		{
			"buffer":0,
			"byteLength":1259460,
			"byteOffset":1259460,
			"target":34962
		},
		{
			"buffer":0,
			"byteLength":432192,
			"byteOffset":2518920,
			"target":34963
		}
	],
	"buffers":[
		{
			"byteLength":2951112,
			"uri":"TAPISSOFT2.bin"
		}
	]
}
