{
	"asset":{
		"generator":"Khronos glTF Blender I/O v4.0.44",
		"version":"2.0"
	},
	"scene":0,
	"scenes":[
		{
			"name":"Scene",
			"nodes":[
				4
			]
		}
	],
	"nodes":[
		{
			"mesh":0,
			"name":"Mesh_0.002",
			"translation":[
				3.4392194747924805,
				0.25594770908355713,
				-3.17020583152771
			]
		},
		{
			"mesh":1,
			"name":"Mesh_1.002",
			"translation":[
				3.4392194747924805,
				0.25594770908355713,
				-3.17020583152771
			]
		},
		{
			"mesh":2,
			"name":"Mesh_2.002",
			"translation":[
				3.4392194747924805,
				0.25594770908355713,
				-3.17020583152771
			]
		},
		{
			"mesh":3,
			"name":"Mesh_3.002",
			"translation":[
				3.4392194747924805,
				0.25594770908355713,
				-3.17020583152771
			]
		},
		{
			"children":[
				0,
				1,
				2,
				3
			],
			"name":"Node_1"
		}
	],
	"materials":[
		{
			"name":"Material_0.002",
			"pbrMetallicRoughness":{
				"baseColorFactor":[
					0,
					0,
					0,
					1
				],
				"roughnessFactor":0.9900000095367432
			}
		},
		{
			"name":"Material_1.001",
			"pbrMetallicRoughness":{
				"roughnessFactor":0.9900000095367432
			}
		}
	],
	"meshes":[
		{
			"name":"Mesh_0.002",
			"primitives":[
				{
					"attributes":{
						"POSITION":0,
						"NORMAL":1,
						"TEXCOORD_0":2
					},
					"indices":3,
					"material":0
				}
			]
		},
		{
			"name":"Mesh_1.002",
			"primitives":[
				{
					"attributes":{
						"POSITION":4,
						"NORMAL":5,
						"TEXCOORD_0":6
					},
					"indices":7,
					"material":1
				}
			]
		},
		{
			"name":"Mesh_2.002",
			"primitives":[
				{
					"attributes":{
						"POSITION":8,
						"NORMAL":9,
						"TEXCOORD_0":10
					},
					"indices":11,
					"material":1
				}
			]
		},
		{
			"name":"Mesh_3.002",
			"primitives":[
				{
					"attributes":{
						"POSITION":12,
						"NORMAL":13,
						"TEXCOORD_0":14
					},
					"indices":15,
					"material":1
				}
			]
		}
	],
	"accessors":[
		{
			"bufferView":0,
			"componentType":5126,
			"count":14169,
			"max":[
				-2.461578845977783,
				3.502990245819092,
				4.27167272567749
			],
			"min":[
				-4.27070426940918,
				3.502990245819092,
				2.4644689559936523
			],
			"type":"VEC3"
		},
		{
			"bufferView":1,
			"componentType":5126,
			"count":14169,
			"type":"VEC3"
		},
		{
			"bufferView":2,
			"componentType":5126,
			"count":14169,
			"type":"VEC2"
		},
		{
			"bufferView":3,
			"componentType":5123,
			"count":14850,
			"type":"SCALAR"
		},
		{
			"bufferView":4,
			"componentType":5126,
			"count":582,
			"max":[
				0,
				3.502990484237671,
				6.732283115386963
			],
			"min":[
				-6.732283115386963,
				0,
				0
			],
			"type":"VEC3"
		},
		{
			"bufferView":5,
			"componentType":5126,
			"count":582,
			"type":"VEC3"
		},
		{
			"bufferView":6,
			"componentType":5126,
			"count":582,
			"type":"VEC2"
		},
		{
			"bufferView":7,
			"componentType":5123,
			"count":960,
			"type":"SCALAR"
		},
		{
			"bufferView":8,
			"componentType":5126,
			"count":9302,
			"max":[
				-2.877159833908081,
				28.50208282470703,
				3.5039472579956055
			],
			"min":[
				-3.855346918106079,
				27.112140655517578,
				3.2283568382263184
			],
			"type":"VEC3"
		},
		{
			"bufferView":9,
			"componentType":5126,
			"count":9302,
			"type":"VEC3"
		},
		{
			"bufferView":10,
			"componentType":5126,
			"count":9302,
			"type":"VEC2"
		},
		{
			"bufferView":11,
			"componentType":5123,
			"count":9729,
			"type":"SCALAR"
		},
		{
			"bufferView":12,
			"componentType":5126,
			"count":12063,
			"max":[
				-2.461655616760254,
				27.125038146972656,
				4.271653652191162
			],
			"min":[
				-4.270627498626709,
				3.502990245819092,
				2.464534044265747
			],
			"type":"VEC3"
		},
		{
			"bufferView":13,
			"componentType":5126,
			"count":12063,
			"type":"VEC3"
		},
		{
			"bufferView":14,
			"componentType":5126,
			"count":12063,
			"type":"VEC2"
		},
		{
			"bufferView":15,
			"componentType":5123,
			"count":17439,
			"type":"SCALAR"
		}
	],
	"bufferViews":[
		{
			"buffer":0,
			"byteLength":170028,
			"byteOffset":0,
			"target":34962
		},
		{
			"buffer":0,
			"byteLength":170028,
			"byteOffset":170028,
			"target":34962
		},
		{
			"buffer":0,
			"byteLength":113352,
			"byteOffset":340056,
			"target":34962
		},
		{
			"buffer":0,
			"byteLength":29700,
			"byteOffset":453408,
			"target":34963
		},
		{
			"buffer":0,
			"byteLength":6984,
			"byteOffset":483108,
			"target":34962
		},
		{
			"buffer":0,
			"byteLength":6984,
			"byteOffset":490092,
			"target":34962
		},
		{
			"buffer":0,
			"byteLength":4656,
			"byteOffset":497076,
			"target":34962
		},
		{
			"buffer":0,
			"byteLength":1920,
			"byteOffset":501732,
			"target":34963
		},
		{
			"buffer":0,
			"byteLength":111624,
			"byteOffset":503652,
			"target":34962
		},
		{
			"buffer":0,
			"byteLength":111624,
			"byteOffset":615276,
			"target":34962
		},
		{
			"buffer":0,
			"byteLength":74416,
			"byteOffset":726900,
			"target":34962
		},
		{
			"buffer":0,
			"byteLength":19458,
			"byteOffset":801316,
			"target":34963
		},
		{
			"buffer":0,
			"byteLength":144756,
			"byteOffset":820776,
			"target":34962
		},
		{
			"buffer":0,
			"byteLength":144756,
			"byteOffset":965532,
			"target":34962
		},
		{
			"buffer":0,
			"byteLength":96504,
			"byteOffset":1110288,
			"target":34962
		},
		{
			"buffer":0,
			"byteLength":34878,
			"byteOffset":1206792,
			"target":34963
		}
	],
	"buffers":[
		{
			"byteLength":1241672,
			"uri":"3DS_114610XX_REC_MINUDE-45-SEMI-RECESSED-1XLED_01.bin"
		}
	]
}
