{
  "accessors": [
    {
      "bufferView": 2,
      "componentType": 5126,
      "count": 8549,
      "max": [
        0.7118059992790222,
        0.8355749845504761,
        1.0
      ],
      "min": [
        -0.7118059992790222,
        -0.8355759978294373,
        -1.0
      ],
      "type": "VEC3"
    },
    {
      "bufferView": 2,
      "byteOffset": 102588,
      "componentType": 5126,
      "count": 8549,
      "max": [
        0.9999998807907104,
        1.0,
        0.9999996423721313
      ],
      "min": [
        -1.0,
        -0.9999992251396179,
        -0.9999996423721313
      ],
      "type": "VEC3"
    },
    {
      "bufferView": 3,
      "componentType": 5126,
      "count": 8549,
      "max": [
        1.0,
        0.9998289942741394,
        1.0,
        1.0
      ],
      "min": [
        -1.0,
        -1.0,
        -1.0,
        -1.0
      ],
      "type": "VEC4"
    },
    {
      "bufferView": 1,
      "componentType": 5126,
      "count": 8549,
      "max": [
        0.9990000128746033,
        0.9916579723358154
      ],
      "min": [
        0.0010000000474974513,
        0.0010000000474974513
      ],
      "type": "VEC2"
    },
    {
      "bufferView": 1,
      "byteOffset": 68392,
      "componentType": 5126,
      "count": 8549,
      "max": [
        907.4140014648438,
        634.7999877929688
      ],
      "min": [
        -35.97330093383789,
        -11.446200370788574
      ],
      "type": "VEC2"
    },
    {
      "bufferView": 0,
      "componentType": 5125,
      "count": 23070,
      "type": "SCALAR"
    }
  ],
  "asset": {
    "extras": {
      "author": "Anton (https://sketchfab.com/toxid)",
      "license": "CC-BY-4.0 (http://creativecommons.org/licenses/by/4.0/)",
      "source": "https://sketchfab.com/3d-models/furniture-for-real-time-visualization-engine-e33151b1f3704a25a920a6b3c2fc456e",
      "title": "furniture for real-time visualization engine"
    },
    "generator": "Sketchfab-12.68.0",
    "version": "2.0"
  },
  "bufferViews": [
    {
      "buffer": 0,
      "byteLength": 92280,
      "name": "floatBufferViews",
      "target": 34963
    },
    {
      "buffer": 0,
      "byteLength": 136784,
      "byteOffset": 92280,
      "byteStride": 8,
      "name": "floatBufferViews",
      "target": 34962
    },
    {
      "buffer": 0,
      "byteLength": 205176,
      "byteOffset": 229064,
      "byteStride": 12,
      "name": "floatBufferViews",
      "target": 34962
    },
    {
      "buffer": 0,
      "byteLength": 136784,
      "byteOffset": 434240,
      "byteStride": 16,
      "name": "floatBufferViews",
      "target": 34962
    }
  ],
  "buffers": [
    {
      "byteLength": 571024,
      "uri": "scene.bin"
    }
  ],
  "images": [
    {
      "uri": "Stul_baseColor.jpeg"
    },
    {
      "uri": "Stul_metallicRoughness.png"
    },
    {
      "uri": "Stul_normal.png"
    }
  ],
  "materials": [
    {
      "doubleSided": true,
      "name": "Stul",
      "normalTexture": {
        "index": 2
      },
      "occlusionTexture": {
        "index": 1
      },
      "pbrMetallicRoughness": {
        "baseColorTexture": {
          "index": 0
        },
        "metallicRoughnessTexture": {
          "index": 1
        }
      }
    }
  ],
  "meshes": [
    {
      "name": "defaultMaterial",
      "primitives": [
        {
          "attributes": {
            "NORMAL": 1,
            "POSITION": 0,
            "TANGENT": 2,
            "TEXCOORD_0": 3,
            "TEXCOORD_1": 4
          },
          "indices": 5,
          "material": 0,
          "mode": 4
        }
      ]
    }
  ],
  "nodes": [
    {
      "children": [
        1
      ],
      "matrix": [
        -0.7363296747207642,
        -4.631522119231657e-32,
        2.08585212903299e-16,
        0.0,
        2.08585212903299e-16,
        -1.634980317179489e-16,
        0.7363296747207642,
        0.0,
        0.0,
        0.7363296747207642,
        1.634980317179489e-16,
        0.0,
        -5.364418029785156e-07,
        1.323489232520334e-22,
        -5.96046561440744e-07,
        1.0
      ],
      "name": "Sketchfab_model"
    },
    {
      "children": [
        2
      ],
      "matrix": [
        1.0,
        0.0,
        0.0,
        0.0,
        0.0,
        -4.371139006309477e-08,
        0.999999999999999,
        0.0,
        0.0,
        -0.999999999999999,
        -4.371139006309477e-08,
        0.0,
        0.0,
        0.0,
        0.0,
        1.0
      ],
      "name": "Collada visual scene group"
    },
    {
      "children": [
        3
      ],
      "name": "Kreslo_low"
    },
    {
      "mesh": 0,
      "name": "defaultMaterial"
    }
  ],
  "samplers": [
    {
      "magFilter": 9729,
      "minFilter": 9987,
      "wrapS": 10497,
      "wrapT": 10497
    }
  ],
  "scene": 0,
  "scenes": [
    {
      "name": "Sketchfab_Scene",
      "nodes": [
        0
      ]
    }
  ],
  "textures": [
    {
      "sampler": 0,
      "source": 0
    },
    {
      "sampler": 0,
      "source": 1
    },
    {
      "sampler": 0,
      "source": 2
    }
  ]
}
