{
	"asset":{
		"generator":"Khronos glTF Blender I/O v4.0.44",
		"version":"2.0"
	},
	"scene":0,
	"scenes":[
		{
			"name":"Scene",
			"nodes":[
				0
			]
		}
	],
	"nodes":[
		{
			"mesh":0,
			"name":"TAPIS SOFT 1.0",
			"rotation":[
				0.7071068286895752,
				0,
				0,
				0.7071068286895752
			],
			"scale":[
				0.10000000149011612,
				0.10000000149011612,
				0.10000000149011612
			]
		}
	],
	"meshes":[
		{
			"name":"TAPIS SOFT 1.0",
			"primitives":[
				{
					"attributes":{
						"POSITION":0,
						"NORMAL":1
					},
					"indices":2
				}
			]
		}
	],
	"accessors":[
		{
			"bufferView":0,
			"componentType":5126,
			"count":185376,
			"max":[
				325.04779052734375,
				325.0461120605469,
				102.21061706542969
			],
			"min":[
				-325.04779052734375,
				-325.0211486816406,
				-45.59356689453125
			],
			"type":"VEC3"
		},
		{
			"bufferView":1,
			"componentType":5126,
			"count":185376,
			"type":"VEC3"
		},
		{
			"bufferView":2,
			"componentType":5125,
			"count":190380,
			"type":"SCALAR"
		}
	],
	"bufferViews":[
		{
			"buffer":0,
			"byteLength":2224512,
			"byteOffset":0,
			"target":34962
		},
		{
			"buffer":0,
			"byteLength":2224512,
			"byteOffset":2224512,
			"target":34962
		},
		{
			"buffer":0,
			"byteLength":761520,
			"byteOffset":4449024,
			"target":34963
		}
	],
	"buffers":[
		{
			"byteLength":5210544,
			"uri":"TAPISSOFT1.bin"
		}
	]
}
