{
	"asset":{
		"generator":"Khronos glTF Blender I/O v4.0.44",
		"version":"2.0"
	},
	"scene":0,
	"scenes":[
		{
			"name":"Scene",
			"nodes":[
				0
			]
		}
	],
	"nodes":[
		{
			"mesh":0,
			"name":"TRACE CHANDELIER 2.0",
			"scale":[
				0.10000000149011612,
				0.10000000149011612,
				0.10000000149011612
			]
		}
	],
	"meshes":[
		{
			"name":"TRACE CHANDELIER 2.0",
			"primitives":[
				{
					"attributes":{
						"POSITION":0,
						"NORMAL":1
					},
					"indices":2
				}
			]
		}
	],
	"accessors":[
		{
			"bufferView":0,
			"componentType":5126,
			"count":406649,
			"max":[
				57.727603912353516,
				2187.21240234375,
				913.72802734375
			],
			"min":[
				-57.74456787109375,
				-25,
				-913.72802734375
			],
			"type":"VEC3"
		},
		{
			"bufferView":1,
			"componentType":5126,
			"count":406649,
			"type":"VEC3"
		},
		{
			"bufferView":2,
			"componentType":5125,
			"count":433746,
			"type":"SCALAR"
		}
	],
	"bufferViews":[
		{
			"buffer":0,
			"byteLength":4879788,
			"byteOffset":0,
			"target":34962
		},
		{
			"buffer":0,
			"byteLength":4879788,
			"byteOffset":4879788,
			"target":34962
		},
		{
			"buffer":0,
			"byteLength":1734984,
			"byteOffset":9759576,
			"target":34963
		}
	],
	"buffers":[
		{
			"byteLength":11494560,
			"uri":"TRACECHANDELIER2.bin"
		}
	]
}
