{
	"asset":{
		"generator":"Khronos glTF Blender I/O v4.0.44",
		"version":"2.0"
	},
	"scene":0,
	"scenes":[
		{
			"name":"Scene",
			"nodes":[
				0
			]
		}
	],
	"nodes":[
		{
			"mesh":0,
			"name":"Protection"
		}
	],
	"materials":[
		{
			"doubleSided":true,
			"name":"David_Armchair_Fabric",
			"pbrMetallicRoughness":{
				"baseColorTexture":{
					"index":0
				},
				"metallicFactor":0,
				"roughnessFactor":0.5
			}
		},
		{
			"doubleSided":true,
			"name":"David_Armchair_Wire",
			"pbrMetallicRoughness":{
				"baseColorTexture":{
					"index":1
				},
				"metallicFactor":0,
				"roughnessFactor":0.5
			}
		},
		{
			"doubleSided":true,
			"name":"David_Armchair_wood",
			"pbrMetallicRoughness":{
				"baseColorTexture":{
					"index":2
				},
				"metallicFactor":0,
				"roughnessFactor":0.5
			}
		}
	],
	"meshes":[
		{
			"name":"Mesh",
			"primitives":[
				{
					"attributes":{
						"POSITION":0,
						"NORMAL":1,
						"TEXCOORD_0":2,
						"TEXCOORD_1":3
					},
					"indices":4,
					"material":0
				},
				{
					"attributes":{
						"POSITION":5,
						"NORMAL":6,
						"TEXCOORD_0":7,
						"TEXCOORD_1":8
					},
					"indices":9,
					"material":1
				},
				{
					"attributes":{
						"POSITION":10,
						"NORMAL":11,
						"TEXCOORD_0":12,
						"TEXCOORD_1":13
					},
					"indices":14,
					"material":2
				}
			]
		}
	],
	"textures":[
		{
			"sampler":0,
			"source":0
		},
		{
			"sampler":0,
			"source":1
		},
		{
			"sampler":0,
			"source":2
		}
	],
	"images":[
		{
			"mimeType":"image/jpeg",
			"name":"David_Armchair_Fabric_d",
			"uri":"David_Armchair_Fabric_d.jpg"
		},
		{
			"mimeType":"image/jpeg",
			"name":"David_Armchair_Wire_d",
			"uri":"David_Armchair_Wire_d.jpg"
		},
		{
			"mimeType":"image/jpeg",
			"name":"David_Armchair_Wood_d",
			"uri":"David_Armchair_Wood_d.jpg"
		}
	],
	"accessors":[
		{
			"bufferView":0,
			"componentType":5126,
			"count":3299,
			"max":[
				2.796583652496338,
				4.708393096923828,
				3.092984676361084
			],
			"min":[
				-2.796570062637329,
				0.012761592864990234,
				-2.758359670639038
			],
			"type":"VEC3"
		},
		{
			"bufferView":1,
			"componentType":5126,
			"count":3299,
			"type":"VEC3"
		},
		{
			"bufferView":2,
			"componentType":5126,
			"count":3299,
			"type":"VEC2"
		},
		{
			"bufferView":3,
			"componentType":5126,
			"count":3299,
			"type":"VEC2"
		},
		{
			"bufferView":4,
			"componentType":5123,
			"count":16320,
			"type":"SCALAR"
		},
		{
			"bufferView":5,
			"componentType":5126,
			"count":76448,
			"max":[
				2.924705743789673,
				8.321310043334961,
				3.1048851013183594
			],
			"min":[
				-2.9247074127197266,
				4.012213230133057,
				-3.1049623489379883
			],
			"type":"VEC3"
		},
		{
			"bufferView":6,
			"componentType":5126,
			"count":76448,
			"type":"VEC3"
		},
		{
			"bufferView":7,
			"componentType":5126,
			"count":76448,
			"type":"VEC2"
		},
		{
			"bufferView":8,
			"componentType":5126,
			"count":76448,
			"type":"VEC2"
		},
		{
			"bufferView":9,
			"componentType":5125,
			"count":399360,
			"type":"SCALAR"
		},
		{
			"bufferView":10,
			"componentType":5126,
			"count":35750,
			"max":[
				2.937041759490967,
				8.349505424499512,
				3.039973258972168
			],
			"min":[
				-2.9370415210723877,
				0.044997215270996094,
				-3.0725479125976562
			],
			"type":"VEC3"
		},
		{
			"bufferView":11,
			"componentType":5126,
			"count":35750,
			"type":"VEC3"
		},
		{
			"bufferView":12,
			"componentType":5126,
			"count":35750,
			"type":"VEC2"
		},
		{
			"bufferView":13,
			"componentType":5126,
			"count":35750,
			"type":"VEC2"
		},
		{
			"bufferView":14,
			"componentType":5123,
			"count":174108,
			"type":"SCALAR"
		}
	],
	"bufferViews":[
		{
			"buffer":0,
			"byteLength":39588,
			"byteOffset":0,
			"target":34962
		},
		{
			"buffer":0,
			"byteLength":39588,
			"byteOffset":39588,
			"target":34962
		},
		{
			"buffer":0,
			"byteLength":26392,
			"byteOffset":79176,
			"target":34962
		},
		{
			"buffer":0,
			"byteLength":26392,
			"byteOffset":105568,
			"target":34962
		},
		{
			"buffer":0,
			"byteLength":32640,
			"byteOffset":131960,
			"target":34963
		},
		{
			"buffer":0,
			"byteLength":917376,
			"byteOffset":164600,
			"target":34962
		},
		{
			"buffer":0,
			"byteLength":917376,
			"byteOffset":1081976,
			"target":34962
		},
		{
			"buffer":0,
			"byteLength":611584,
			"byteOffset":1999352,
			"target":34962
		},
		{
			"buffer":0,
			"byteLength":611584,
			"byteOffset":2610936,
			"target":34962
		},
		{
			"buffer":0,
			"byteLength":1597440,
			"byteOffset":3222520,
			"target":34963
		},
		{
			"buffer":0,
			"byteLength":429000,
			"byteOffset":4819960,
			"target":34962
		},
		{
			"buffer":0,
			"byteLength":429000,
			"byteOffset":5248960,
			"target":34962
		},
		{
			"buffer":0,
			"byteLength":286000,
			"byteOffset":5677960,
			"target":34962
		},
		{
			"buffer":0,
			"byteLength":286000,
			"byteOffset":5963960,
			"target":34962
		},
		{
			"buffer":0,
			"byteLength":348216,
			"byteOffset":6249960,
			"target":34963
		}
	],
	"samplers":[
		{
			"magFilter":9729,
			"minFilter":9987
		}
	],
	"buffers":[
		{
			"byteLength":6598176,
			"uri":"Chair.bin"
		}
	]
}
