{
	"asset":{
		"generator":"Khronos glTF Blender I/O v4.0.44",
		"version":"2.0"
	},
	"scene":0,
	"scenes":[
		{
			"name":"Scene",
			"nodes":[
				0,
				1,
				2,
				3,
				4
			]
		}
	],
	"nodes":[
		{
			"mesh":0,
			"name":"Protection"
		},
		{
			"mesh":1,
			"name":"Seating"
		},
		{
			"mesh":2,
			"name":"Wires"
		},
		{
			"mesh":3,
			"name":"SeatingLine"
		},
		{
			"mesh":4,
			"name":"Woodwork"
		}
	],
	"materials":[
		{
			"doubleSided":true,
			"name":"David_Armchair_Fabric",
			"pbrMetallicRoughness":{
				"baseColorTexture":{
					"index":0
				},
				"metallicFactor":0,
				"roughnessFactor":0.5
			}
		},
		{
			"doubleSided":true,
			"name":"David_Armchair_Wire",
			"pbrMetallicRoughness":{
				"baseColorTexture":{
					"index":1
				},
				"metallicFactor":0,
				"roughnessFactor":0.5
			}
		},
		{
			"doubleSided":true,
			"name":"David_Armchair_wood",
			"pbrMetallicRoughness":{
				"baseColorTexture":{
					"index":2
				},
				"metallicFactor":0,
				"roughnessFactor":0.5
			}
		}
	],
	"meshes":[
		{
			"name":"Mesh",
			"primitives":[
				{
					"attributes":{
						"POSITION":0,
						"NORMAL":1,
						"TEXCOORD_0":2,
						"TEXCOORD_1":3
					},
					"indices":4
				}
			]
		},
		{
			"name":"Mesh.001",
			"primitives":[
				{
					"attributes":{
						"POSITION":5,
						"NORMAL":6,
						"TEXCOORD_0":7
					},
					"indices":8,
					"material":0
				}
			]
		},
		{
			"name":"Mesh.002",
			"primitives":[
				{
					"attributes":{
						"POSITION":9,
						"NORMAL":10,
						"TEXCOORD_0":11
					},
					"indices":12,
					"material":1
				}
			]
		},
		{
			"name":"Mesh.003",
			"primitives":[
				{
					"attributes":{
						"POSITION":13,
						"NORMAL":14,
						"TEXCOORD_0":15,
						"TEXCOORD_1":16
					},
					"indices":17
				}
			]
		},
		{
			"name":"Mesh.004",
			"primitives":[
				{
					"attributes":{
						"POSITION":18,
						"NORMAL":19,
						"TEXCOORD_0":20
					},
					"indices":21,
					"material":2
				}
			]
		}
	],
	"textures":[
		{
			"sampler":0,
			"source":0
		},
		{
			"sampler":0,
			"source":1
		},
		{
			"sampler":0,
			"source":2
		}
	],
	"images":[
		{
			"mimeType":"image/jpeg",
			"name":"David_Armchair_Fabric_d",
			"uri":"David_Armchair_Fabric_d.jpg"
		},
		{
			"mimeType":"image/jpeg",
			"name":"David_Armchair_Wire_d",
			"uri":"David_Armchair_Wire_d.jpg"
		},
		{
			"mimeType":"image/jpeg",
			"name":"David_Armchair_Wood_d",
			"uri":"David_Armchair_Wood_d.jpg"
		}
	],
	"accessors":[
		{
			"bufferView":0,
			"componentType":5126,
			"count":800,
			"max":[
				2.796583652496338,
				0.04713320732116699,
				2.6931967735290527
			],
			"min":[
				-2.796570062637329,
				0.012761592864990234,
				-2.758359670639038
			],
			"type":"VEC3"
		},
		{
			"bufferView":1,
			"componentType":5126,
			"count":800,
			"type":"VEC3"
		},
		{
			"bufferView":2,
			"componentType":5126,
			"count":800,
			"type":"VEC2"
		},
		{
			"bufferView":3,
			"componentType":5126,
			"count":800,
			"type":"VEC2"
		},
		{
			"bufferView":4,
			"componentType":5123,
			"count":3840,
			"type":"SCALAR"
		},
		{
			"bufferView":5,
			"componentType":5126,
			"count":2499,
			"max":[
				2.4648659229278564,
				4.708393096923828,
				3.092984676361084
			],
			"min":[
				-2.463801383972168,
				3.92881178855896,
				-1.578845500946045
			],
			"type":"VEC3"
		},
		{
			"bufferView":6,
			"componentType":5126,
			"count":2499,
			"type":"VEC3"
		},
		{
			"bufferView":7,
			"componentType":5126,
			"count":2499,
			"type":"VEC2"
		},
		{
			"bufferView":8,
			"componentType":5123,
			"count":12480,
			"type":"SCALAR"
		},
		{
			"bufferView":9,
			"componentType":5126,
			"count":72423,
			"max":[
				2.924705743789673,
				8.321310043334961,
				2.633925676345825
			],
			"min":[
				-2.9247074127197266,
				4.012213230133057,
				-3.1049623489379883
			],
			"type":"VEC3"
		},
		{
			"bufferView":10,
			"componentType":5126,
			"count":72423,
			"type":"VEC3"
		},
		{
			"bufferView":11,
			"componentType":5126,
			"count":72423,
			"type":"VEC2"
		},
		{
			"bufferView":12,
			"componentType":5125,
			"count":376320,
			"type":"SCALAR"
		},
		{
			"bufferView":13,
			"componentType":5126,
			"count":4025,
			"max":[
				2.4778892993927,
				4.56364631652832,
				3.1048851013183594
			],
			"min":[
				-2.4768245220184326,
				4.073885917663574,
				-1.587951898574829
			],
			"type":"VEC3"
		},
		{
			"bufferView":14,
			"componentType":5126,
			"count":4025,
			"type":"VEC3"
		},
		{
			"bufferView":15,
			"componentType":5126,
			"count":4025,
			"type":"VEC2"
		},
		{
			"bufferView":16,
			"componentType":5126,
			"count":4025,
			"type":"VEC2"
		},
		{
			"bufferView":17,
			"componentType":5123,
			"count":23040,
			"type":"SCALAR"
		},
		{
			"bufferView":18,
			"componentType":5126,
			"count":35750,
			"max":[
				2.937041759490967,
				8.349505424499512,
				3.039973258972168
			],
			"min":[
				-2.9370415210723877,
				0.044997215270996094,
				-3.0725479125976562
			],
			"type":"VEC3"
		},
		{
			"bufferView":19,
			"componentType":5126,
			"count":35750,
			"type":"VEC3"
		},
		{
			"bufferView":20,
			"componentType":5126,
			"count":35750,
			"type":"VEC2"
		},
		{
			"bufferView":21,
			"componentType":5123,
			"count":174108,
			"type":"SCALAR"
		}
	],
	"bufferViews":[
		{
			"buffer":0,
			"byteLength":9600,
			"byteOffset":0,
			"target":34962
		},
		{
			"buffer":0,
			"byteLength":9600,
			"byteOffset":9600,
			"target":34962
		},
		{
			"buffer":0,
			"byteLength":6400,
			"byteOffset":19200,
			"target":34962
		},
		{
			"buffer":0,
			"byteLength":6400,
			"byteOffset":25600,
			"target":34962
		},
		{
			"buffer":0,
			"byteLength":7680,
			"byteOffset":32000,
			"target":34963
		},
		{
			"buffer":0,
			"byteLength":29988,
			"byteOffset":39680,
			"target":34962
		},
		{
			"buffer":0,
			"byteLength":29988,
			"byteOffset":69668,
			"target":34962
		},
		{
			"buffer":0,
			"byteLength":19992,
			"byteOffset":99656,
			"target":34962
		},
		{
			"buffer":0,
			"byteLength":24960,
			"byteOffset":119648,
			"target":34963
		},
		{
			"buffer":0,
			"byteLength":869076,
			"byteOffset":144608,
			"target":34962
		},
		{
			"buffer":0,
			"byteLength":869076,
			"byteOffset":1013684,
			"target":34962
		},
		{
			"buffer":0,
			"byteLength":579384,
			"byteOffset":1882760,
			"target":34962
		},
		{
			"buffer":0,
			"byteLength":1505280,
			"byteOffset":2462144,
			"target":34963
		},
		{
			"buffer":0,
			"byteLength":48300,
			"byteOffset":3967424,
			"target":34962
		},
		{
			"buffer":0,
			"byteLength":48300,
			"byteOffset":4015724,
			"target":34962
		},
		{
			"buffer":0,
			"byteLength":32200,
			"byteOffset":4064024,
			"target":34962
		},
		{
			"buffer":0,
			"byteLength":32200,
			"byteOffset":4096224,
			"target":34962
		},
		{
			"buffer":0,
			"byteLength":46080,
			"byteOffset":4128424,
			"target":34963
		},
		{
			"buffer":0,
			"byteLength":429000,
			"byteOffset":4174504,
			"target":34962
		},
		{
			"buffer":0,
			"byteLength":429000,
			"byteOffset":4603504,
			"target":34962
		},
		{
			"buffer":0,
			"byteLength":286000,
			"byteOffset":5032504,
			"target":34962
		},
		{
			"buffer":0,
			"byteLength":348216,
			"byteOffset":5318504,
			"target":34963
		}
	],
	"samplers":[
		{
			"magFilter":9729,
			"minFilter":9987
		}
	],
	"buffers":[
		{
			"byteLength":5666720,
			"uri":"Chair.bin"
		}
	]
}
