{
  "accessors": [
    {
      "bufferView": 2,
      "componentType": 5126,
      "count": 60019,
      "max": [
        0.6081349849700928,
        0.7914720177650452,
        1.8204330205917358
      ],
      "min": [
        -0.5527589917182922,
        -0.7084059715270996,
        0.008565999567508698
      ],
      "type": "VEC3"
    },
    {
      "bufferView": 2,
      "byteOffset": 720228,
      "componentType": 5126,
      "count": 60019,
      "max": [
        0.9999961853027344,
        0.9999961853027344,
        0.9999961853027344
      ],
      "min": [
        -0.9999997615814209,
        -0.9999713897705078,
        -0.9999794960021973
      ],
      "type": "VEC3"
    },
    {
      "bufferView": 3,
      "componentType": 5126,
      "count": 60019,
      "max": [
        0.9999929666519165,
        0.9998143911361694,
        0.9999868869781494,
        1.0
      ],
      "min": [
        -0.9997935891151428,
        -0.9999925494194031,
        -0.9999916553497314,
        -1.0
      ],
      "type": "VEC4"
    },
    {
      "bufferView": 1,
      "componentType": 5126,
      "count": 60019,
      "max": [
        0.9680780172348022,
        0.9999899864196777
      ],
      "min": [
        9.999999747378752e-06,
        9.999999747378752e-06
      ],
      "type": "VEC2"
    },
    {
      "bufferView": 0,
      "componentType": 5125,
      "count": 259386,
      "type": "SCALAR"
    }
  ],
  "asset": {
    "extras": {
      "author": "Tijerín Art Studio (https://sketchfab.com/tijerin_art)",
      "license": "CC-BY-4.0 (http://creativecommons.org/licenses/by/4.0/)",
      "source": "https://sketchfab.com/3d-models/wicker-basket-with-white-cloth-bag-3d-scanning-5c4a0a8f92c04bbda5bdd6b350894196",
      "title": "Wicker basket with white cloth bag - 3D scanning"
    },
    "generator": "Sketchfab-15.36.0",
    "version": "2.0"
  },
  "bufferViews": [
    {
      "buffer": 0,
      "byteLength": 1037544,
      "name": "floatBufferViews",
      "target": 34963
    },
    {
      "buffer": 0,
      "byteLength": 480152,
      "byteOffset": 1037544,
      "byteStride": 8,
      "name": "floatBufferViews",
      "target": 34962
    },
    {
      "buffer": 0,
      "byteLength": 1440456,
      "byteOffset": 1517696,
      "byteStride": 12,
      "name": "floatBufferViews",
      "target": 34962
    },
    {
      "buffer": 0,
      "byteLength": 960304,
      "byteOffset": 2958152,
      "byteStride": 16,
      "name": "floatBufferViews",
      "target": 34962
    }
  ],
  "buffers": [
    {
      "byteLength": 3918456,
      "uri": "scene.bin"
    }
  ],
  "images": [
    {
      "uri": "initialShadingGroup_baseColor.png"
    },
    {
      "uri": "initialShadingGroup_metallicRoughness.png"
    },
    {
      "uri": "initialShadingGroup_normal.png"
    }
  ],
  "materials": [
    {
      "doubleSided": true,
      "name": "initialShadingGroup",
      "normalTexture": {
        "index": 2,
        "scale": 0.43144092729557354
      },
      "pbrMetallicRoughness": {
        "baseColorTexture": {
          "index": 0
        },
        "metallicFactor": 0.0,
        "metallicRoughnessTexture": {
          "index": 1
        }
      }
    }
  ],
  "meshes": [
    {
      "name": "Object_0",
      "primitives": [
        {
          "attributes": {
            "NORMAL": 1,
            "POSITION": 0,
            "TANGENT": 2,
            "TEXCOORD_0": 3
          },
          "indices": 4,
          "material": 0,
          "mode": 4
        }
      ]
    }
  ],
  "nodes": [
    {
      "children": [
        1
      ],
      "matrix": [
        1.0,
        0.0,
        0.0,
        0.0,
        0.0,
        2.220446049250313e-16,
        -1.0,
        0.0,
        0.0,
        1.0,
        2.220446049250313e-16,
        0.0,
        0.0,
        0.0,
        0.0,
        1.0
      ],
      "name": "Sketchfab_model"
    },
    {
      "children": [
        2
      ],
      "name": "Cesta low 4.obj.cleaner.materialmerger.gles"
    },
    {
      "mesh": 0,
      "name": "Object_2"
    }
  ],
  "samplers": [
    {
      "magFilter": 9729,
      "minFilter": 9987,
      "wrapS": 10497,
      "wrapT": 10497
    }
  ],
  "scene": 0,
  "scenes": [
    {
      "name": "Sketchfab_Scene",
      "nodes": [
        0
      ]
    }
  ],
  "textures": [
    {
      "sampler": 0,
      "source": 0
    },
    {
      "sampler": 0,
      "source": 1
    },
    {
      "sampler": 0,
      "source": 2
    }
  ]
}
