{
	"asset":{
		"generator":"Khronos glTF Blender I/O v4.0.44",
		"version":"2.0"
	},
	"scene":0,
	"scenes":[
		{
			"name":"Scene",
			"nodes":[
				0
			]
		}
	],
	"nodes":[
		{
			"mesh":0,
			"name":"TAPIS SOFT 3.0",
			"scale":[
				0.10000000149011612,
				0.10000000149011612,
				0.10000000149011612
			]
		}
	],
	"meshes":[
		{
			"name":"TAPIS SOFT 3.0",
			"primitives":[
				{
					"attributes":{
						"POSITION":0,
						"NORMAL":1
					},
					"indices":2
				}
			]
		}
	],
	"accessors":[
		{
			"bufferView":0,
			"componentType":5126,
			"count":43430,
			"max":[
				325,
				325.02850341796875,
				102.21113586425781
			],
			"min":[
				-37.184242248535156,
				-325,
				-45.62622833251953
			],
			"type":"VEC3"
		},
		{
			"bufferView":1,
			"componentType":5126,
			"count":43430,
			"type":"VEC3"
		},
		{
			"bufferView":2,
			"componentType":5123,
			"count":44538,
			"type":"SCALAR"
		}
	],
	"bufferViews":[
		{
			"buffer":0,
			"byteLength":521160,
			"byteOffset":0,
			"target":34962
		},
		{
			"buffer":0,
			"byteLength":521160,
			"byteOffset":521160,
			"target":34962
		},
		{
			"buffer":0,
			"byteLength":89076,
			"byteOffset":1042320,
			"target":34963
		}
	],
	"buffers":[
		{
			"byteLength":1131396,
			"uri":"TAPISSOFT3.bin"
		}
	]
}
