{
	"asset":{
		"generator":"Khronos glTF Blender I/O v4.0.44",
		"version":"2.0"
	},
	"scene":0,
	"scenes":[
		{
			"name":"Scene",
			"nodes":[
				7
			]
		}
	],
	"nodes":[
		{
			"mesh":0,
			"name":"Mesh_0"
		},
		{
			"mesh":1,
			"name":"Mesh_1"
		},
		{
			"mesh":2,
			"name":"Mesh_2"
		},
		{
			"mesh":3,
			"name":"Mesh_3"
		},
		{
			"mesh":4,
			"name":"Mesh_4"
		},
		{
			"mesh":5,
			"name":"Mesh_5"
		},
		{
			"mesh":6,
			"name":"Mesh_6"
		},
		{
			"children":[
				0,
				1,
				2,
				3,
				4,
				5,
				6
			],
			"name":"Node_1"
		}
	],
	"materials":[
		{
			"name":"Material_0",
			"pbrMetallicRoughness":{
				"baseColorFactor":[
					1,
					0.1029999852180481,
					0.793002188205719,
					1
				],
				"roughnessFactor":0.9900000095367432
			}
		}
	],
	"meshes":[
		{
			"name":"Mesh_0",
			"primitives":[
				{
					"attributes":{
						"POSITION":0,
						"NORMAL":1,
						"TEXCOORD_0":2
					},
					"indices":3,
					"material":0
				}
			]
		},
		{
			"name":"Mesh_1",
			"primitives":[
				{
					"attributes":{
						"POSITION":4,
						"NORMAL":5,
						"TEXCOORD_0":6
					},
					"indices":7,
					"material":0
				}
			]
		},
		{
			"name":"Mesh_2",
			"primitives":[
				{
					"attributes":{
						"POSITION":8,
						"NORMAL":9,
						"TEXCOORD_0":10
					},
					"indices":11,
					"material":0
				}
			]
		},
		{
			"name":"Mesh_3",
			"primitives":[
				{
					"attributes":{
						"POSITION":12,
						"NORMAL":13,
						"TEXCOORD_0":14
					},
					"indices":15,
					"material":0
				}
			]
		},
		{
			"name":"Mesh_4",
			"primitives":[
				{
					"attributes":{
						"POSITION":16,
						"NORMAL":17,
						"TEXCOORD_0":18
					},
					"indices":19,
					"material":0
				}
			]
		},
		{
			"name":"Mesh_5",
			"primitives":[
				{
					"attributes":{
						"POSITION":20,
						"NORMAL":21,
						"TEXCOORD_0":22
					},
					"indices":23,
					"material":0
				}
			]
		},
		{
			"name":"Mesh_6",
			"primitives":[
				{
					"attributes":{
						"POSITION":24,
						"NORMAL":25,
						"TEXCOORD_0":26
					},
					"indices":27,
					"material":0
				}
			]
		}
	],
	"accessors":[
		{
			"bufferView":0,
			"componentType":5126,
			"count":3012,
			"max":[
				2.831552743911743,
				3.8877952098846436,
				3.116023540496826
			],
			"min":[
				-2.821990728378296,
				1.3090550899505615,
				-3.1831893920898438
			],
			"type":"VEC3"
		},
		{
			"bufferView":1,
			"componentType":5126,
			"count":3012,
			"type":"VEC3"
		},
		{
			"bufferView":2,
			"componentType":5126,
			"count":3012,
			"type":"VEC2"
		},
		{
			"bufferView":3,
			"componentType":5123,
			"count":4692,
			"type":"SCALAR"
		},
		{
			"bufferView":4,
			"componentType":5126,
			"count":1236,
			"max":[
				0.9402852058410645,
				1.1811025142669678,
				1.748378038406372
			],
			"min":[
				-0.9307231903076172,
				0,
				-1.8155437707901
			],
			"type":"VEC3"
		},
		{
			"bufferView":5,
			"componentType":5126,
			"count":1236,
			"type":"VEC3"
		},
		{
			"bufferView":6,
			"componentType":5126,
			"count":1236,
			"type":"VEC2"
		},
		{
			"bufferView":7,
			"componentType":5123,
			"count":2040,
			"type":"SCALAR"
		},
		{
			"bufferView":8,
			"componentType":5126,
			"count":1566,
			"max":[
				0.6103758811950684,
				0.6306061744689941,
				1.5391407012939453
			],
			"min":[
				-0.6100964546203613,
				0,
				-1.3847720623016357
			],
			"type":"VEC3"
		},
		{
			"bufferView":9,
			"componentType":5126,
			"count":1566,
			"type":"VEC3"
		},
		{
			"bufferView":10,
			"componentType":5126,
			"count":1566,
			"type":"VEC2"
		},
		{
			"bufferView":11,
			"componentType":5123,
			"count":2868,
			"type":"SCALAR"
		},
		{
			"bufferView":12,
			"componentType":5126,
			"count":7677,
			"max":[
				2.6815505027770996,
				3.700787305831909,
				0.9309841394424438
			],
			"min":[
				-2.6719887256622314,
				1.4173228740692139,
				-0.998150110244751
			],
			"type":"VEC3"
		},
		{
			"bufferView":13,
			"componentType":5126,
			"count":7677,
			"type":"VEC3"
		},
		{
			"bufferView":14,
			"componentType":5126,
			"count":7677,
			"type":"VEC2"
		},
		{
			"bufferView":15,
			"componentType":5123,
			"count":12132,
			"type":"SCALAR"
		},
		{
			"bufferView":16,
			"componentType":5126,
			"count":706,
			"max":[
				0.7921826839447021,
				3.4055118560791016,
				1.206574559211731
			],
			"min":[
				-0.7826206684112549,
				1.751968502998352,
				1.1672043800354004
			],
			"type":"VEC3"
		},
		{
			"bufferView":17,
			"componentType":5126,
			"count":706,
			"type":"VEC3"
		},
		{
			"bufferView":18,
			"componentType":5126,
			"count":706,
			"type":"VEC2"
		},
		{
			"bufferView":19,
			"componentType":5123,
			"count":1008,
			"type":"SCALAR"
		},
		{
			"bufferView":20,
			"componentType":5126,
			"count":698,
			"max":[
				0.7921826839447021,
				3.4055118560791016,
				-1.234370231628418
			],
			"min":[
				-0.7826206684112549,
				1.7519683837890625,
				-1.273740530014038
			],
			"type":"VEC3"
		},
		{
			"bufferView":21,
			"componentType":5126,
			"count":698,
			"type":"VEC3"
		},
		{
			"bufferView":22,
			"componentType":5126,
			"count":698,
			"type":"VEC2"
		},
		{
			"bufferView":23,
			"componentType":5123,
			"count":1008,
			"type":"SCALAR"
		},
		{
			"bufferView":24,
			"componentType":5126,
			"count":3112,
			"max":[
				2.9969069957733154,
				4.015748023986816,
				3.116023540496826
			],
			"min":[
				-2.987344980239868,
				1.1811022758483887,
				-3.1831893920898438
			],
			"type":"VEC3"
		},
		{
			"bufferView":25,
			"componentType":5126,
			"count":3112,
			"type":"VEC3"
		},
		{
			"bufferView":26,
			"componentType":5126,
			"count":3112,
			"type":"VEC2"
		},
		{
			"bufferView":27,
			"componentType":5123,
			"count":4800,
			"type":"SCALAR"
		}
	],
	"bufferViews":[
		{
			"buffer":0,
			"byteLength":36144,
			"byteOffset":0,
			"target":34962
		},
		{
			"buffer":0,
			"byteLength":36144,
			"byteOffset":36144,
			"target":34962
		},
		{
			"buffer":0,
			"byteLength":24096,
			"byteOffset":72288,
			"target":34962
		},
		{
			"buffer":0,
			"byteLength":9384,
			"byteOffset":96384,
			"target":34963
		},
		{
			"buffer":0,
			"byteLength":14832,
			"byteOffset":105768,
			"target":34962
		},
		{
			"buffer":0,
			"byteLength":14832,
			"byteOffset":120600,
			"target":34962
		},
		{
			"buffer":0,
			"byteLength":9888,
			"byteOffset":135432,
			"target":34962
		},
		{
			"buffer":0,
			"byteLength":4080,
			"byteOffset":145320,
			"target":34963
		},
		{
			"buffer":0,
			"byteLength":18792,
			"byteOffset":149400,
			"target":34962
		},
		{
			"buffer":0,
			"byteLength":18792,
			"byteOffset":168192,
			"target":34962
		},
		{
			"buffer":0,
			"byteLength":12528,
			"byteOffset":186984,
			"target":34962
		},
		{
			"buffer":0,
			"byteLength":5736,
			"byteOffset":199512,
			"target":34963
		},
		{
			"buffer":0,
			"byteLength":92124,
			"byteOffset":205248,
			"target":34962
		},
		{
			"buffer":0,
			"byteLength":92124,
			"byteOffset":297372,
			"target":34962
		},
		{
			"buffer":0,
			"byteLength":61416,
			"byteOffset":389496,
			"target":34962
		},
		{
			"buffer":0,
			"byteLength":24264,
			"byteOffset":450912,
			"target":34963
		},
		{
			"buffer":0,
			"byteLength":8472,
			"byteOffset":475176,
			"target":34962
		},
		{
			"buffer":0,
			"byteLength":8472,
			"byteOffset":483648,
			"target":34962
		},
		{
			"buffer":0,
			"byteLength":5648,
			"byteOffset":492120,
			"target":34962
		},
		{
			"buffer":0,
			"byteLength":2016,
			"byteOffset":497768,
			"target":34963
		},
		{
			"buffer":0,
			"byteLength":8376,
			"byteOffset":499784,
			"target":34962
		},
		{
			"buffer":0,
			"byteLength":8376,
			"byteOffset":508160,
			"target":34962
		},
		{
			"buffer":0,
			"byteLength":5584,
			"byteOffset":516536,
			"target":34962
		},
		{
			"buffer":0,
			"byteLength":2016,
			"byteOffset":522120,
			"target":34963
		},
		{
			"buffer":0,
			"byteLength":37344,
			"byteOffset":524136,
			"target":34962
		},
		{
			"buffer":0,
			"byteLength":37344,
			"byteOffset":561480,
			"target":34962
		},
		{
			"buffer":0,
			"byteLength":24896,
			"byteOffset":598824,
			"target":34962
		},
		{
			"buffer":0,
			"byteLength":9600,
			"byteOffset":623720,
			"target":34963
		}
	],
	"buffers":[
		{
			"byteLength":633320,
			"uri":"3DS_110745XX_SURF_DUELL_LED-2700K_01.bin"
		}
	]
}
